# Blender 4.2.0
# www.blender.org
mtllib arrow.mtl
o Cube
v 0.051518 0.051518 -0.156827
v 0.051518 -0.051518 -0.156827
v 0.051518 0.051518 0.483331
v 0.051518 -0.051518 0.483331
v -0.051518 0.051518 -0.156827
v -0.051518 -0.051518 -0.156827
v -0.051518 0.051518 0.483331
v -0.051518 -0.051518 0.483331
v 0.170292 -0.170292 -0.171909
v -0.170292 -0.170292 -0.171909
v 0.170292 0.170292 -0.171909
v -0.170292 0.170292 -0.171909
v 0.000000 0.000000 -0.486975
vn -0.0000 1.0000 -0.0000
vn -0.0000 -0.0000 1.0000
vn -1.0000 -0.0000 -0.0000
vn -0.0000 -1.0000 -0.0000
vn 1.0000 -0.0000 -0.0000
vn -0.1260 -0.0000 0.9920
vn -0.8797 -0.0000 -0.4755
vn -0.0000 -0.1260 0.9920
vn -0.0000 0.1260 0.9920
vn 0.1260 -0.0000 0.9920
vn -0.0000 -0.8797 -0.4755
vn -0.0000 0.8797 -0.4755
vn 0.8797 -0.0000 -0.4755
vt 0.625000 0.500000
vt 0.875000 0.500000
vt 0.875000 0.750000
vt 0.625000 0.750000
vt 0.375000 0.750000
vt 0.625000 1.000000
vt 0.375000 1.000000
vt 0.375000 0.000000
vt 0.625000 0.000000
vt 0.625000 0.250000
vt 0.375000 0.250000
vt 0.125000 0.500000
vt 0.375000 0.500000
vt 0.125000 0.750000
s 0
usemtl Material
f 1/1/1 5/2/1 7/3/1 3/4/1
f 4/5/2 3/4/2 7/6/2 8/7/2
f 8/8/3 7/9/3 5/10/3 6/11/3
f 6/12/4 2/13/4 4/5/4 8/14/4
f 2/13/5 1/1/5 3/4/5 4/5/5
f 6/11/6 5/10/6 12/10/6 10/11/6
f 10/11/7 12/10/7 13/11/7
f 2/13/8 6/12/8 10/12/8 9/13/8
f 5/2/9 1/1/9 11/1/9 12/2/9
f 1/1/10 2/13/10 9/13/10 11/1/10
f 9/13/11 10/12/11 13/13/11
f 12/2/12 11/1/12 13/2/12
f 11/1/13 9/13/13 13/1/13
